<svg xmlns="http://www.w3.org/2000/svg" viewBox="0 0 153.44 152.18"><path d="M151.11,83.61c-.38,20.89-16.88,41.42-37.28,46.7-6.52,1.69-13.09,1.86-19.69,1.8h0l-4-.05a7.36,7.36,0,0,0-1.19.05H86.72v20.07H67V132.09h-6.6c-18.53.06-37.06,0-55.58,0H.39c-.14-.28-.26-.55-.39-.82l46.49-40,6.11-5.26.89-.77h-11V82.59H56.67l2-1.69a29.35,29.35,0,0,0,4.23-3.65l3.05-2.62H42.52V71.9H69.1l1.66-1.43C76.21,66,81.5,61.32,86.86,56.73c.59-.52,1.26-.94,1.9-1.41l-.3-.73c-.93-.09-1.86-.26-2.79-.26q-15.58,0-31.18,0c-15.31.06-25.92,9.4-27.86,24.64-.23,1.82-.9,2.35-2.66,2.33-6.26-.09-12.52-.19-18.77,0C2.33,81.47,2.33,80,2.51,78c1.66-18.3,10.35-32.12,26.27-41.35,8.36-4.86,17.5-6.45,27-6.37,2.73,0,5.46-.15,8.17.06a4.77,4.77,0,0,0,1.57-.09h1.32V0h19.7V30.3h2.17a8.09,8.09,0,0,0,.89,0c19.88-.08,39.77-.05,59.65-.06h3.83l.33.94C139.36,43.34,125.27,55.44,110.7,68l-4.6,4h4.78v2.73H103l-9.24,8h17.17v2.73H90.54L83.92,91h0c-6.21,5.25-12.36,10.56-18.54,15.85a5.74,5.74,0,0,0-.61,1.09c1.31.09,2.37.21,3.42.21,10.4,0,20.8,0,31.2,0,14.81-.1,25.89-10,27.62-24.73.19-1.61.65-2.35,2.35-2.33,6.45,0,12.92,0,19.37,0C150.57,81.05,151.15,81.78,151.11,83.61Z" fill="#fff"/></svg>