<svg xmlns="http://www.w3.org/2000/svg" viewBox="0 0 452.16 64.03"><path d="M134.25,24h91.23s-.13,11.59-.13,16.07c-1,0-57.91.15-85.61.15-4.71,0-5.89,1.64-5.32,7.81h90.81V64H123.71c-2.57,0-2.58,0-2.58-3.22V22.08c0-11.24,4.46-18.43,13.1-21.37a12.26,12.26,0,0,1,3.94-.54c28.43,0,86.34,0,87,.11V15.85c-.85.06-85.68.14-87.13.37-2.86.46-3.76,1.82-3.81,5.34V24" fill="#fff"/><path d="M361.06,56v8c-4.21,0-8.18,0-12.16-.09-.35,0-.94-1.21-1-1.88-.1-3.18,0-6.37,0-9.55V3.16c0-2.46.54-3.16,2.57-3.16,25.44.09,50.88-.14,76.31.17,10.9.13,19.11,6.5,23.47,19A40.18,40.18,0,0,1,452,31.1c.26,10.29.1,20.59.1,30.88,0,.55-.11,1.1-.2,2-4,0-7.87,0-11.78-.06-.37,0-.82-.78-1.06-1.31a3.93,3.93,0,0,1,0-1.45c0-5.11,0-5.11-4.28-5.11H361.06m38.82-15.92h35.56a8.7,8.7,0,0,0,2.39-.08,1.86,1.86,0,0,0,1.1-1.28c-.08-4.07.18-8.28-.57-12.18-1.28-6.67-6-10.43-12.47-10.45-20.91-.06-41.83,0-62.74-.07-1.72,0-2.12.77-2.1,2.72.08,6.21.1,12.43,0,18.63,0,2.19.55,2.76,2.28,2.75,12.19-.08,24.37,0,36.56,0" fill="#fff"/><path d="M338.76,64c-4.22,0-8.19,0-12.16-.08-.36,0-.82-1-1-1.69-.64-2.37-.85-5-1.84-7.14a11.16,11.16,0,0,0-10.61-6.84c-10.65-.16-21.3-.06-32-.06H247.77V64h-7.71c-5.49,0-5.49,0-5.49-6.77V3c0-2.06.24-3,2.26-3,25.36.09,50.73-.07,76.1.13,11,.08,19.29,6.21,23.83,18.75C338,22.3,338.18,26.3,338.81,30c.24,1.44-.26,2.08-1.51,2.05-3.33-.06-6.66-.05-10,0-1.05,0-1.63-.37-1.66-1.76C325.4,20.68,318.9,16,311.9,16.06c-20.51.07-41,0-61.53,0-2.61,0-2.61,0-2.62,3.24s.11,6.38,0,9.55c-.12,2.41.41,3.18,2.5,3.17q31.17-.17,62.33,0c8.21,0,15.2,3.65,20.61,11.32,4.07,5.75,5.57,12.66,5.69,20.62" fill="#fff"/><path d="M107.73,48V63.73H0L64.58,16.1H3.63S3.71,4.56,3.71.19h108L47,48h60.76" fill="#fff"/></svg>